<svg width="578" height="578" viewBox="0 0 578 578" fill="none" xmlns="http://www.w3.org/2000/svg">
<path d="M289 578C211.8 578 139.2 547.9 84.6 493.4C30.1 438.8 0 366.2 0 289C0 211.8 30.1 139.2 84.6 84.6C139.2 30.1 211.8 0 289 0C366.2 0 438.8 30.1 493.4 84.6C547.9 139.2 578 211.8 578 289C578 366.2 547.9 438.8 493.4 493.4C438.8 547.9 366.2 578 289 578ZM289 40C151.7 40 40 151.7 40 289C40 426.3 151.7 538 289 538C426.3 538 538 426.3 538 289C538 151.7 426.3 40 289 40Z" fill="black"/>
<path d="M387.3 438.8H347.3C347.3 406.7 321.2 380.5 289 380.5C256.8 380.5 230.7 406.6 230.7 438.8H190.7C190.7 384.6 234.8 340.5 289 340.5C343.2 340.5 387.3 384.6 387.3 438.8Z" fill="black"/>
<path d="M210.2 179H136V219H210.2V179Z" fill="black"/>
<path d="M441 179H366.8V219H441V179Z" fill="black"/>
</svg>
